<svg xmlns="http://www.w3.org/2000/svg" viewBox="0 0 320 320">
  <defs>
    <linearGradient id="aurora" x1="0%" y1="0%" x2="100%" y2="100%">
      <stop offset="0%" stop-color="#44F9FF" />
      <stop offset="45%" stop-color="#9F50FF" />
      <stop offset="100%" stop-color="#FFB24D" />
    </linearGradient>
    <radialGradient id="halo" cx="50%" cy="35%" r="70%">
      <stop offset="0%" stop-color="#44F9FF" stop-opacity="0.4" />
      <stop offset="60%" stop-color="#9F50FF" stop-opacity="0.2" />
      <stop offset="100%" stop-color="#050510" stop-opacity="0" />
    </radialGradient>
  </defs>
  <rect width="320" height="320" rx="64" fill="#050510" />
  <ellipse cx="160" cy="125" rx="126" ry="120" fill="url(#halo)" />
  <path
    d="M92 240c0-40 24-76 64-92V110h16v38c40 16 64 52 64 92h-24c0-34-22-64-54-74v86h-16v-86c-32 10-54 40-54 74z"
    fill="url(#aurora)"
  />
  <path
    d="M146 130c-26 0-48-18-48-42s22-42 48-42 48 18 48 42c0 9-3 18-9 24l-39-24 39-23c-6-6-15-9-24-9-19 0-34 13-34 30s15 30 34 30c9 0 17-3 23-8l13 18c-9 9-23 14-37 14z"
    fill="#44F9FF"
  />
  <text x="160" y="285" text-anchor="middle" font-family="'Space Grotesk', 'Geist', sans-serif" font-size="32" letter-spacing="0.6em" fill="#f7fbff">
    DOGECHEF
  </text>
</svg>
